General                          : ChattChitto RG - Movies [R2L]
==========
Complete name                    : The Mechanic 2011 720p BRRip H264 [ChattChitto RG]
Format                           : MPEG-4
Format profile                   : Base Media
Codec ID                         : isom
File size                        : 1.79 GiB
Duration                         : 1h 32mn
Overall bit rate                 : 2 760 Kbps
Encoded date                     : UTC 2011-04-16 12:30:29

Video
===========
ID                               : 1
Format                           : AVC
Format/Info                      : Advanced Video Codec
Format profile                   : High@L4.1
Format settings, CABAC           : Yes
Format settings, ReFrames        : 4 frames
Format settings, GOP             : M=1, N=62
Codec ID                         : avc1
Codec ID/Info                    : Advanced Video Coding
Duration                         : 1h 32mn
Bit rate mode                    : Variable
Bit rate                         : 2 400 Kbps
Maximum bit rate                 : 13.6 Mbps
Width                            : 1 280 pixels
Height                           : 528 pixels
Display aspect ratio             : 2.40:1
Frame rate mode                  : Constant
Frame rate                       : 23.976 fps
Color space                      : YUV
Chroma subsampling               : 4:2:0
Bit depth                        : 8 bits
Scan type                        : Progressive
Bits/(Pixel*Frame)               : 0.148
Stream size                      : 1.55 GiB (87%)
Writing library                  : x264 core 114 r1913 5fd3dce
Encoded date                     : UTC 2011-04-16 02:02:03

Audio
==========
ID                               : 2
Format                           : AAC
Format/Info                      : Advanced Audio Codec
Format profile                   : LC
Codec ID                         : 40
Duration                         : 1h 32mn
Bit rate mode                    : Variable
Bit rate                         : 352.8 Kbps
Maximum bit rate                 : 610 Kbps
Channel(s)                       : 6 channels
Channel positions                : Front: L C R, Side: L R, LFE
Sampling rate                    : 48.0 KHz
Compression mode                 : Lossy
Stream size                      : 237 MiB (13%)
Encoded date                     : UTC 2011-04-16 12:30:56

Subtitles                        : English | French | Spanish


----------------------------------------------------
IMDB Link: http://www.imdb.com/title/tt0472399/
----------------------------------------------------



Screen Shots:
==============    
http://chattchitto.net/chattchittorg/movies/brrip/2011/mechanic_2011/1.png 
http://chattchitto.net/chattchittorg/movies/brrip/2011/mechanic_2011/2.png 
http://chattchitto.net/chattchittorg/movies/brrip/2011/mechanic_2011/3.png 
http://chattchitto.net/chattchittorg/movies/brrip/2011/mechanic_2011/4.png 
http://chattchitto.net/chattchittorg/movies/brrip/2011/mechanic_2011/5.png 
http://chattchitto.net/chattchittorg/movies/brrip/2011/mechanic_2011/6.png 
http://chattchitto.net/chattchittorg/movies/brrip/2011/mechanic_2011/7.png



ScreenShots Comparison:
=========================  
http://screenshotcomparison.com/comparison/44354



Plot:
======
Follows an elite hit man as he teaches his trade to an apprentice who has a connection to one of his previous victims.



Release Info:
==============
original name .... : The Mechanic 2011 720p BRRip H264 [ChattChitto RG]
ripper.............: HDC
encoder............: Recalled2Life (R2L)
video codec........: H264/.MP4
video bitrate......: 2400
audio codec........: AAC-LC
aspect ratio.......: 2.40:1
resolution.........: 1280 x 528
genre..............: Action | Crime | Thriller
runtime............: 1h 32mn
language...........: English
rating.............: R
subtitles..........: English | French | Spanish
sample.............: Yes
2ch Audio..........: 2ch Audio for XBox Viewers
Compatibility .....: XBox | PS3 | WD Live



Source:
========
The.Mechanic.2011.720p.BluRay.x264.DTS-HDC



Notes:
=======
ChattChitto RG Encourages Burning this Film with ConvertXtoDVD and Playing with VLC media player.
XBox 360 | PS3 | WD Live - Compatible 
Enhanced for your viewing pleasure ;)